<svg xmlns="http://www.w3.org/2000/svg" viewBox="0 0 1600 400" role="img" aria-label="Gold background">
  <defs>
    <linearGradient id="bg" x1="0" y1="0" x2="1" y2="1">
      <stop offset="0%" stop-color="#7c2d12"/>
      <stop offset="55%" stop-color="#ca8a04"/>
      <stop offset="100%" stop-color="#a16207"/>
    </linearGradient>
    <radialGradient id="sun" cx="0.78" cy="0.18" r="0.45">
      <stop offset="0%" stop-color="#fde68a" stop-opacity="0.55"/>
      <stop offset="100%" stop-color="#fde68a" stop-opacity="0"/>
    </radialGradient>
  </defs>

  <rect width="1600" height="400" fill="url(#bg)"/>
  <rect width="1600" height="400" fill="url(#sun)"/>

  <g opacity="0.18">
    <path d="M0 320 C280 260, 520 360, 820 300 C1100 245, 1320 330, 1600 290 L1600 400 L0 400 Z" fill="#fef08a"/>
    <path d="M0 355 C220 330, 500 390, 860 345 C1160 305, 1360 360, 1600 340 L1600 400 L0 400 Z" fill="#fff7ae"/>
  </g>

  <g transform="translate(940 74)" opacity="0.32" fill="#fff8dc">
    <rect x="0" y="0" width="180" height="58" rx="10"/>
    <rect x="30" y="74" width="180" height="58" rx="10"/>
    <rect x="60" y="148" width="180" height="58" rx="10"/>
  </g>

  <g transform="translate(210 50)" opacity="0.24">
    <circle cx="0" cy="0" r="45" fill="#fff7ae"/>
    <circle cx="58" cy="70" r="20" fill="#fff7ae"/>
    <circle cx="120" cy="25" r="28" fill="#fff7ae"/>
  </g>
</svg>
