<svg xmlns="http://www.w3.org/2000/svg" viewBox="0 0 1600 400" role="img" aria-label="Fuel background">
  <defs>
    <linearGradient id="bg" x1="0" y1="0" x2="1" y2="1">
      <stop offset="0%" stop-color="#0f766e"/>
      <stop offset="55%" stop-color="#0ea5a5"/>
      <stop offset="100%" stop-color="#14532d"/>
    </linearGradient>
    <radialGradient id="glow" cx="0.8" cy="0.2" r="0.6">
      <stop offset="0%" stop-color="#99f6e4" stop-opacity="0.45"/>
      <stop offset="100%" stop-color="#99f6e4" stop-opacity="0"/>
    </radialGradient>
  </defs>

  <rect width="1600" height="400" fill="url(#bg)"/>
  <rect width="1600" height="400" fill="url(#glow)"/>

  <g opacity="0.2">
    <path d="M0 320 C220 250, 360 380, 640 300 C980 200, 1190 360, 1600 280 L1600 400 L0 400 Z" fill="#86efac"/>
    <path d="M0 350 C250 300, 470 400, 780 330 C1080 260, 1300 380, 1600 340 L1600 400 L0 400 Z" fill="#d9f99d"/>
  </g>

  <g transform="translate(1040 75)" opacity="0.3">
    <rect x="0" y="20" width="120" height="200" rx="18" fill="#ffffff"/>
    <rect x="20" y="45" width="80" height="66" rx="8" fill="#134e4a"/>
    <rect x="45" y="130" width="30" height="70" rx="6" fill="#134e4a"/>
    <path d="M120 70 C180 70, 180 170, 145 180" fill="none" stroke="#ffffff" stroke-width="14" stroke-linecap="round"/>
    <circle cx="145" cy="188" r="14" fill="#ffffff"/>
  </g>

  <g transform="translate(160 40)" opacity="0.22">
    <circle cx="100" cy="100" r="58" fill="#ecfeff"/>
    <circle cx="240" cy="88" r="42" fill="#ecfeff"/>
    <circle cx="320" cy="110" r="30" fill="#ecfeff"/>
  </g>
</svg>
